<svg
  xmlns="http://www.w3.org/2000/svg"
  enable-background="new 0 0 24 24"
  height="18"
  viewBox="0 0 24 24"
  width="18"
  focusable="false"
>
  <g>
    <rect fill="none" height="24" width="24"></rect>
    <path
      fill="blue"
      d="M16.5,6H15l0-3.25C15,2.34,14.66,2,14.25,2h-4.5C9.34,2,9,2.34,9,2.75V6H7.5C6.67,6,6,6.67,6,7.5v11 C6,19.33,6.67,20,7.5,20v0.5C7.5,21.33,8.17,22,9,22s1.5-0.67,1.5-1.5V20h3v0.5c0,0.83,0.67,1.5,1.5,1.5s1.5-0.67,1.5-1.5V20 c0.83,0,1.5-0.67,1.5-1.5v-11C18,6.67,17.33,6,16.5,6z M10.5,3.5h3V6h-3V3.5z M14.56,15.58c-0.62,0.57-1.47,0.91-2.48,0.91 c-1.46,0-2.73-0.84-3.35-2.07c-0.26-0.51-0.4-1.08-0.4-1.68c0-0.61,0.14-1.18,0.4-1.69c0.62-1.22,1.89-2.07,3.35-2.07 c0.99,0,1.84,0.36,2.48,0.95c0.01,0.01,0.01,0.04,0,0.05L13.54,11c-0.01,0.02-0.04,0.02-0.05,0c-0.39-0.35-0.87-0.53-1.41-0.53 c-0.98,0-1.8,0.66-2.1,1.55c-0.08,0.23-0.12,0.47-0.12,0.71c0,0.25,0.04,0.49,0.12,0.71c0.3,0.89,1.12,1.55,2.1,1.55 c0.5,0,0.93-0.13,1.27-0.36c0.38-0.25,0.64-0.63,0.73-1.08c0-0.02-0.01-0.05-0.04-0.05h-1.93c-0.02,0-0.04-0.02-0.04-0.04v-1.37 c0-0.02,0.02-0.04,0.04-0.04h3.46c0.02,0,0.03,0.01,0.04,0.03c0.04,0.23,0.06,0.48,0.06,0.73C15.68,13.97,15.27,14.93,14.56,15.58z"
    ></path>
  </g>
</svg>
